<?xml version="1.0" encoding="utf-8"?>
<!-- Designed by Vexels.com - 2020 All Rights Reserved - https://vexels.com/terms-and-conditions/  -->
<svg version="1.1" id="Layer_1" xmlns="http://www.w3.org/2000/svg" xmlns:xlink="http://www.w3.org/1999/xlink" x="0px" y="0px"
	 viewBox="0 0 1200 1200" enable-background="new 0 0 1200 1200" xml:space="preserve">
<g>
	<path fill="#FE3728" d="M269.465,523.29c-49.393-82.687-99.018-143.122-151.11-114.999c0,0-96.089,44.44-60.414,218.432
		C81.69,742.55,191.99,757.58,243.228,732.918C294.465,708.255,318.858,605.977,269.465,523.29z"/>
	<path fill="#FE3728" d="M396.873,521.947c113.399,11.99,173.901-87.67,171.483-206.184
		c-2.418-118.514-28.208-215.64-71.539-231.794c-71.838-26.782-201.126,82.754-226.111,210.987
		C238.375,460.893,366.173,518.701,396.873,521.947z"/>
	<path fill="#FE3728" d="M904.717,784.86c-61.538-47.456-103.663-124.329-131.598-155.924
		c-27.935-31.595-73.221-90.317-172.582-90.317l-0.315,0.397l-0.315-0.397c-99.361,0-144.647,58.722-172.582,90.317
		c-27.933,31.595-70.059,108.468-131.598,155.924c-61.537,47.456-102.472,131.166-70.632,220.395
		c31.839,89.229,141.004,127.891,241.448,110.954c28.719-4.843,57.161-10.683,85.167-18.697c20.719-5.929,40.784-7.684,62.499-6.317
		c19.927,1.255,38.099,7.727,57.335,12.484c20.585,5.091,41.454,9.007,62.357,12.529c100.444,16.937,209.609-21.725,241.448-110.954
		C1007.19,916.026,966.255,832.316,904.717,784.86z M736.645,857.206c-15.925,43.116-86.049,100.183-136.548,128.368
		c-0.018,0.061-0.028,0.096-0.028,0.096c-0.022-0.013-0.045-0.027-0.069-0.04c-0.023,0.013-0.047,0.027-0.07,0.04
		c0,0-0.011-0.035-0.027-0.096c-50.498-28.185-120.624-85.253-136.547-128.368c-15.112-40.911,2.054-87.076,41.845-103.36
		c34.738-14.214,74.136-0.653,94.799,30.397c20.664-31.05,60.06-44.611,94.797-30.397
		C734.589,770.13,751.756,816.295,736.645,857.206z"/>
	<path fill="#FE3728" d="M803.127,521.947c30.701-3.246,158.499-61.055,126.167-226.991
		C904.309,166.723,775.021,57.188,703.183,83.969c-43.331,16.154-69.122,113.28-71.539,231.794
		C629.225,434.277,689.727,533.937,803.127,521.947z"/>
	<path fill="#FE3728" d="M1081.645,408.29c-52.092-28.122-101.717,32.312-151.11,114.999s-25,184.965,26.237,209.628
		c51.238,24.662,161.537,9.633,185.287-106.195C1177.734,452.731,1081.645,408.29,1081.645,408.29z"/>
</g>
</svg>
